<mxfile host="app.diagrams.net" modified="2023-05-27T06:20:38.238Z" agent="Mozilla/5.0 (Windows NT 10.0; Win64; x64; rv:109.0) Gecko/20100101 Firefox/113.0" etag="Y56SjV7NJXn2enyQxfdT" version="21.3.4" type="device">
  <diagram id="C5RBs43oDa-KdzZeNtuy" name="Page-1">
    <mxGraphModel dx="1050" dy="558" grid="1" gridSize="10" guides="1" tooltips="1" connect="1" arrows="1" fold="1" page="1" pageScale="1" pageWidth="1200" pageHeight="1000" math="0" shadow="0">
      <root>
        <mxCell id="WIyWlLk6GJQsqaUBKTNV-0" />
        <mxCell id="WIyWlLk6GJQsqaUBKTNV-1" parent="WIyWlLk6GJQsqaUBKTNV-0" />
        <mxCell id="o4iG0BvGkQ8m5M4XFaOD-0" value="App" style="swimlane;fontStyle=0;align=center;verticalAlign=top;childLayout=stackLayout;horizontal=1;startSize=26;horizontalStack=0;resizeParent=1;resizeLast=0;collapsible=1;marginBottom=0;rounded=0;shadow=0;strokeWidth=1;" parent="WIyWlLk6GJQsqaUBKTNV-1" vertex="1">
          <mxGeometry x="845" y="136" width="220" height="100" as="geometry">
            <mxRectangle x="340" y="380" width="170" height="26" as="alternateBounds" />
          </mxGeometry>
        </mxCell>
        <mxCell id="o4iG0BvGkQ8m5M4XFaOD-1" value="in : Scanner = new Scanner(System.in)&#xa;" style="text;align=left;verticalAlign=top;spacingLeft=4;spacingRight=4;overflow=hidden;rotatable=0;points=[[0,0.5],[1,0.5]];portConstraint=eastwest;" parent="o4iG0BvGkQ8m5M4XFaOD-0" vertex="1">
          <mxGeometry y="26" width="220" height="34" as="geometry" />
        </mxCell>
        <mxCell id="o4iG0BvGkQ8m5M4XFaOD-2" value="" style="line;html=1;strokeWidth=1;align=left;verticalAlign=middle;spacingTop=-1;spacingLeft=3;spacingRight=3;rotatable=0;labelPosition=right;points=[];portConstraint=eastwest;" parent="o4iG0BvGkQ8m5M4XFaOD-0" vertex="1">
          <mxGeometry y="60" width="220" height="8" as="geometry" />
        </mxCell>
        <mxCell id="o4iG0BvGkQ8m5M4XFaOD-36" value="+main(args : String[]) : void" style="text;html=1;align=left;verticalAlign=middle;resizable=0;points=[];autosize=1;strokeColor=none;fillColor=none;" parent="o4iG0BvGkQ8m5M4XFaOD-0" vertex="1">
          <mxGeometry y="68" width="220" height="30" as="geometry" />
        </mxCell>
        <mxCell id="o4iG0BvGkQ8m5M4XFaOD-3" value="Ingrediente&#xa;Interface&#xa;" style="swimlane;fontStyle=2;align=center;verticalAlign=top;childLayout=stackLayout;horizontal=1;startSize=40;horizontalStack=0;resizeParent=1;resizeLast=0;collapsible=1;marginBottom=0;rounded=0;shadow=0;strokeWidth=1;" parent="WIyWlLk6GJQsqaUBKTNV-1" vertex="1">
          <mxGeometry x="435" y="680" width="250" height="150" as="geometry">
            <mxRectangle x="340" y="380" width="170" height="26" as="alternateBounds" />
          </mxGeometry>
        </mxCell>
        <mxCell id="o4iG0BvGkQ8m5M4XFaOD-4" value="&lt;&lt;Property&gt;&gt; -nombre : String&#xa;&lt;&lt;Property&gt;&gt; -precio : Double" style="text;align=left;verticalAlign=top;spacingLeft=4;spacingRight=4;overflow=hidden;rotatable=0;points=[[0,0.5],[1,0.5]];portConstraint=eastwest;" parent="o4iG0BvGkQ8m5M4XFaOD-3" vertex="1">
          <mxGeometry y="40" width="250" height="40" as="geometry" />
        </mxCell>
        <mxCell id="o4iG0BvGkQ8m5M4XFaOD-5" value="" style="line;html=1;strokeWidth=1;align=left;verticalAlign=middle;spacingTop=-1;spacingLeft=3;spacingRight=3;rotatable=0;labelPosition=right;points=[];portConstraint=eastwest;" parent="o4iG0BvGkQ8m5M4XFaOD-3" vertex="1">
          <mxGeometry y="80" width="250" height="8" as="geometry" />
        </mxCell>
        <mxCell id="o4iG0BvGkQ8m5M4XFaOD-38" value="&lt;div align=&quot;left&quot;&gt;+Ingrediente(nombre : String, precio double)&lt;/div&gt;&lt;div align=&quot;left&quot;&gt;+Ingrediente(nombre : String)&lt;/div&gt;&lt;div align=&quot;left&quot;&gt;+Ingrediente(precio : double)&lt;br&gt;&lt;/div&gt;" style="text;html=1;align=left;verticalAlign=middle;resizable=0;points=[];autosize=1;strokeColor=none;fillColor=none;" parent="o4iG0BvGkQ8m5M4XFaOD-3" vertex="1">
          <mxGeometry y="88" width="250" height="60" as="geometry" />
        </mxCell>
        <mxCell id="o4iG0BvGkQ8m5M4XFaOD-6" value="TipoMasa&#xa;enum" style="swimlane;fontStyle=2;align=center;verticalAlign=top;childLayout=stackLayout;horizontal=1;startSize=40;horizontalStack=0;resizeParent=1;resizeLast=0;collapsible=1;marginBottom=0;rounded=0;shadow=0;strokeWidth=1;" parent="WIyWlLk6GJQsqaUBKTNV-1" vertex="1">
          <mxGeometry x="155" y="560" width="160" height="100" as="geometry">
            <mxRectangle x="130" y="650" width="170" height="26" as="alternateBounds" />
          </mxGeometry>
        </mxCell>
        <mxCell id="o4iG0BvGkQ8m5M4XFaOD-7" value="BLANCA&#xa;INTEGRAL&#xa;VEGANA&#xa;" style="text;align=left;verticalAlign=top;spacingLeft=4;spacingRight=4;overflow=hidden;rotatable=0;points=[[0,0.5],[1,0.5]];portConstraint=eastwest;" parent="o4iG0BvGkQ8m5M4XFaOD-6" vertex="1">
          <mxGeometry y="40" width="160" height="50" as="geometry" />
        </mxCell>
        <mxCell id="o4iG0BvGkQ8m5M4XFaOD-8" value="" style="line;html=1;strokeWidth=1;align=left;verticalAlign=middle;spacingTop=-1;spacingLeft=3;spacingRight=3;rotatable=0;labelPosition=right;points=[];portConstraint=eastwest;" parent="o4iG0BvGkQ8m5M4XFaOD-6" vertex="1">
          <mxGeometry y="90" width="160" height="8" as="geometry" />
        </mxCell>
        <mxCell id="o4iG0BvGkQ8m5M4XFaOD-9" value="Tamanio&#xa;enum" style="swimlane;fontStyle=2;align=center;verticalAlign=top;childLayout=stackLayout;horizontal=1;startSize=40;horizontalStack=0;resizeParent=1;resizeLast=0;collapsible=1;marginBottom=0;rounded=0;shadow=0;strokeWidth=1;" parent="WIyWlLk6GJQsqaUBKTNV-1" vertex="1">
          <mxGeometry x="155" y="710" width="160" height="110" as="geometry">
            <mxRectangle x="340" y="380" width="170" height="26" as="alternateBounds" />
          </mxGeometry>
        </mxCell>
        <mxCell id="o4iG0BvGkQ8m5M4XFaOD-10" value="INDIVIDUAL&#xa;MEDIANA&#xa;FAMILIAR&#xa;XL&#xa;" style="text;align=left;verticalAlign=top;spacingLeft=4;spacingRight=4;overflow=hidden;rotatable=0;points=[[0,0.5],[1,0.5]];portConstraint=eastwest;" parent="o4iG0BvGkQ8m5M4XFaOD-9" vertex="1">
          <mxGeometry y="40" width="160" height="60" as="geometry" />
        </mxCell>
        <mxCell id="o4iG0BvGkQ8m5M4XFaOD-11" value="" style="line;html=1;strokeWidth=1;align=left;verticalAlign=middle;spacingTop=-1;spacingLeft=3;spacingRight=3;rotatable=0;labelPosition=right;points=[];portConstraint=eastwest;" parent="o4iG0BvGkQ8m5M4XFaOD-9" vertex="1">
          <mxGeometry y="100" width="160" height="8" as="geometry" />
        </mxCell>
        <mxCell id="o4iG0BvGkQ8m5M4XFaOD-17" value="Boleta" style="swimlane;fontStyle=0;align=center;verticalAlign=top;childLayout=stackLayout;horizontal=1;startSize=26;horizontalStack=0;resizeParent=1;resizeLast=0;collapsible=1;marginBottom=0;rounded=0;shadow=0;strokeWidth=1;" parent="WIyWlLk6GJQsqaUBKTNV-1" vertex="1">
          <mxGeometry x="785" y="360" width="300" height="118" as="geometry">
            <mxRectangle x="340" y="380" width="170" height="26" as="alternateBounds" />
          </mxGeometry>
        </mxCell>
        <mxCell id="o4iG0BvGkQ8m5M4XFaOD-18" value="&lt;&lt;Property&gt;&gt; -total : double&#xa;&lt;&lt;Property&gt;&gt; -usuario : Usuario&#xa;&lt;&lt;Property&gt;&gt; -pizzas : Pizza = new ArrayList&lt;&gt;()" style="text;align=left;verticalAlign=top;spacingLeft=4;spacingRight=4;overflow=hidden;rotatable=0;points=[[0,0.5],[1,0.5]];portConstraint=eastwest;" parent="o4iG0BvGkQ8m5M4XFaOD-17" vertex="1">
          <mxGeometry y="26" width="300" height="54" as="geometry" />
        </mxCell>
        <mxCell id="o4iG0BvGkQ8m5M4XFaOD-19" value="" style="line;html=1;strokeWidth=1;align=left;verticalAlign=middle;spacingTop=-1;spacingLeft=3;spacingRight=3;rotatable=0;labelPosition=right;points=[];portConstraint=eastwest;" parent="o4iG0BvGkQ8m5M4XFaOD-17" vertex="1">
          <mxGeometry y="80" width="300" height="8" as="geometry" />
        </mxCell>
        <mxCell id="o4iG0BvGkQ8m5M4XFaOD-31" value="&lt;div align=&quot;left&quot;&gt;+Boleta(usuario : Usuario)&lt;br&gt;&lt;/div&gt;" style="text;html=1;align=left;verticalAlign=middle;resizable=0;points=[];autosize=1;strokeColor=none;fillColor=none;" parent="o4iG0BvGkQ8m5M4XFaOD-17" vertex="1">
          <mxGeometry y="88" width="300" height="30" as="geometry" />
        </mxCell>
        <mxCell id="o4iG0BvGkQ8m5M4XFaOD-47" value="Orden" style="swimlane;fontStyle=0;align=center;verticalAlign=top;childLayout=stackLayout;horizontal=1;startSize=26;horizontalStack=0;resizeParent=1;resizeLast=0;collapsible=1;marginBottom=0;rounded=0;shadow=0;strokeWidth=1;" parent="WIyWlLk6GJQsqaUBKTNV-1" vertex="1">
          <mxGeometry x="115" y="160" width="300" height="128" as="geometry">
            <mxRectangle x="340" y="380" width="170" height="26" as="alternateBounds" />
          </mxGeometry>
        </mxCell>
        <mxCell id="o4iG0BvGkQ8m5M4XFaOD-48" value="in : Scanner = new Scanner(System.in)&#xa;&lt;&lt;Property&gt;&gt; -usuario : Usuario" style="text;align=left;verticalAlign=top;spacingLeft=4;spacingRight=4;overflow=hidden;rotatable=0;points=[[0,0.5],[1,0.5]];portConstraint=eastwest;" parent="o4iG0BvGkQ8m5M4XFaOD-47" vertex="1">
          <mxGeometry y="26" width="300" height="34" as="geometry" />
        </mxCell>
        <mxCell id="o4iG0BvGkQ8m5M4XFaOD-49" value="" style="line;html=1;strokeWidth=1;align=left;verticalAlign=middle;spacingTop=-1;spacingLeft=3;spacingRight=3;rotatable=0;labelPosition=right;points=[];portConstraint=eastwest;" parent="o4iG0BvGkQ8m5M4XFaOD-47" vertex="1">
          <mxGeometry y="60" width="300" height="8" as="geometry" />
        </mxCell>
        <mxCell id="o4iG0BvGkQ8m5M4XFaOD-50" value="&lt;div&gt;+Orden(usuario : Usuario)&lt;/div&gt;&lt;div&gt;+seleccionPizza(usuario : Usuario) : void&lt;/div&gt;&lt;div&gt;+agregarPizza(seleccion : int, usuario : Usuario) : void&lt;br&gt;&lt;/div&gt;" style="text;html=1;align=left;verticalAlign=middle;resizable=0;points=[];autosize=1;strokeColor=none;fillColor=none;" parent="o4iG0BvGkQ8m5M4XFaOD-47" vertex="1">
          <mxGeometry y="68" width="300" height="60" as="geometry" />
        </mxCell>
        <mxCell id="o4iG0BvGkQ8m5M4XFaOD-51" value="Masa" style="swimlane;fontStyle=0;align=center;verticalAlign=top;childLayout=stackLayout;horizontal=1;startSize=26;horizontalStack=0;resizeParent=1;resizeLast=0;collapsible=1;marginBottom=0;rounded=0;shadow=0;strokeWidth=1;" parent="WIyWlLk6GJQsqaUBKTNV-1" vertex="1">
          <mxGeometry x="505" y="520" width="213" height="100" as="geometry">
            <mxRectangle x="340" y="380" width="170" height="26" as="alternateBounds" />
          </mxGeometry>
        </mxCell>
        <mxCell id="o4iG0BvGkQ8m5M4XFaOD-52" value="&lt;&lt;Property&gt;&gt; -tipo : TipoMasa&#xa;&lt;&lt;Property&gt;&gt; -tamanio : Tamanio" style="text;align=left;verticalAlign=top;spacingLeft=4;spacingRight=4;overflow=hidden;rotatable=0;points=[[0,0.5],[1,0.5]];portConstraint=eastwest;" parent="o4iG0BvGkQ8m5M4XFaOD-51" vertex="1">
          <mxGeometry y="26" width="213" height="34" as="geometry" />
        </mxCell>
        <mxCell id="o4iG0BvGkQ8m5M4XFaOD-53" value="" style="line;html=1;strokeWidth=1;align=left;verticalAlign=middle;spacingTop=-1;spacingLeft=3;spacingRight=3;rotatable=0;labelPosition=right;points=[];portConstraint=eastwest;" parent="o4iG0BvGkQ8m5M4XFaOD-51" vertex="1">
          <mxGeometry y="60" width="213" height="8" as="geometry" />
        </mxCell>
        <mxCell id="o4iG0BvGkQ8m5M4XFaOD-54" value="&lt;div align=&quot;left&quot;&gt;+Masa(nombre : String, precio double)&lt;/div&gt;" style="text;html=1;align=left;verticalAlign=middle;resizable=0;points=[];autosize=1;strokeColor=none;fillColor=none;" parent="o4iG0BvGkQ8m5M4XFaOD-51" vertex="1">
          <mxGeometry y="68" width="213" height="30" as="geometry" />
        </mxCell>
        <mxCell id="o4iG0BvGkQ8m5M4XFaOD-56" value="Carrito" style="swimlane;fontStyle=0;align=center;verticalAlign=top;childLayout=stackLayout;horizontal=1;startSize=26;horizontalStack=0;resizeParent=1;resizeLast=0;collapsible=1;marginBottom=0;rounded=0;shadow=0;strokeWidth=1;" parent="WIyWlLk6GJQsqaUBKTNV-1" vertex="1">
          <mxGeometry x="505" y="120" width="250" height="170" as="geometry">
            <mxRectangle x="340" y="380" width="170" height="26" as="alternateBounds" />
          </mxGeometry>
        </mxCell>
        <mxCell id="o4iG0BvGkQ8m5M4XFaOD-57" value="in : Scanner = new Scanner(System.in)&#xa;-ordenes : Orden = new ArrayList&lt;&gt;()" style="text;align=left;verticalAlign=top;spacingLeft=4;spacingRight=4;overflow=hidden;rotatable=0;points=[[0,0.5],[1,0.5]];portConstraint=eastwest;" parent="o4iG0BvGkQ8m5M4XFaOD-56" vertex="1">
          <mxGeometry y="26" width="250" height="34" as="geometry" />
        </mxCell>
        <mxCell id="o4iG0BvGkQ8m5M4XFaOD-58" value="" style="line;html=1;strokeWidth=1;align=left;verticalAlign=middle;spacingTop=-1;spacingLeft=3;spacingRight=3;rotatable=0;labelPosition=right;points=[];portConstraint=eastwest;" parent="o4iG0BvGkQ8m5M4XFaOD-56" vertex="1">
          <mxGeometry y="60" width="250" height="8" as="geometry" />
        </mxCell>
        <mxCell id="o4iG0BvGkQ8m5M4XFaOD-59" value="&lt;div&gt;+pagar() : boolean&lt;/div&gt;&lt;div&gt;+menu() : void&lt;/div&gt;&lt;div&gt;+generarOrden() : void&lt;/div&gt;&lt;div&gt;+ordenar(index : int) : void&lt;/div&gt;&lt;div&gt;+mostrarUsuarios() : void&lt;/div&gt;&lt;div&gt;+agregarUsuario() : void&lt;br&gt;&lt;/div&gt;" style="text;html=1;align=left;verticalAlign=middle;resizable=0;points=[];autosize=1;strokeColor=none;fillColor=none;" parent="o4iG0BvGkQ8m5M4XFaOD-56" vertex="1">
          <mxGeometry y="68" width="250" height="100" as="geometry" />
        </mxCell>
        <mxCell id="o4iG0BvGkQ8m5M4XFaOD-62" value="Pizza" style="swimlane;fontStyle=0;align=center;verticalAlign=top;childLayout=stackLayout;horizontal=1;startSize=26;horizontalStack=0;resizeParent=1;resizeLast=0;collapsible=1;marginBottom=0;rounded=0;shadow=0;strokeWidth=1;" parent="WIyWlLk6GJQsqaUBKTNV-1" vertex="1">
          <mxGeometry x="785" y="560" width="300" height="168" as="geometry">
            <mxRectangle x="340" y="380" width="170" height="26" as="alternateBounds" />
          </mxGeometry>
        </mxCell>
        <mxCell id="o4iG0BvGkQ8m5M4XFaOD-63" value="in : Scanner = new Scanner(System.in)&#xa;&lt;&lt;Property&gt;&gt; -nombrePizza : String&#xa;&lt;&lt;Property&gt;&gt; -costo : double&#xa;-ingredientes : Ingrediente&#xa;" style="text;align=left;verticalAlign=top;spacingLeft=4;spacingRight=4;overflow=hidden;rotatable=0;points=[[0,0.5],[1,0.5]];portConstraint=eastwest;" parent="o4iG0BvGkQ8m5M4XFaOD-62" vertex="1">
          <mxGeometry y="26" width="300" height="74" as="geometry" />
        </mxCell>
        <mxCell id="o4iG0BvGkQ8m5M4XFaOD-64" value="" style="line;html=1;strokeWidth=1;align=left;verticalAlign=middle;spacingTop=-1;spacingLeft=3;spacingRight=3;rotatable=0;labelPosition=right;points=[];portConstraint=eastwest;" parent="o4iG0BvGkQ8m5M4XFaOD-62" vertex="1">
          <mxGeometry y="100" width="300" height="8" as="geometry" />
        </mxCell>
        <mxCell id="o4iG0BvGkQ8m5M4XFaOD-65" value="&lt;div&gt;+Pizza(nombrePizza : String, costo : double)&lt;br&gt;&lt;/div&gt;+Pizza(seleccion : int)&lt;br&gt;&lt;div&gt;+agregarIngrediente(pizza Pizza) : void&lt;br&gt;&lt;/div&gt;" style="text;html=1;align=left;verticalAlign=middle;resizable=0;points=[];autosize=1;strokeColor=none;fillColor=none;" parent="o4iG0BvGkQ8m5M4XFaOD-62" vertex="1">
          <mxGeometry y="108" width="300" height="60" as="geometry" />
        </mxCell>
        <mxCell id="o4iG0BvGkQ8m5M4XFaOD-66" value="Usuario" style="swimlane;fontStyle=0;align=center;verticalAlign=top;childLayout=stackLayout;horizontal=1;startSize=26;horizontalStack=0;resizeParent=1;resizeLast=0;collapsible=1;marginBottom=0;rounded=0;shadow=0;strokeWidth=1;" parent="WIyWlLk6GJQsqaUBKTNV-1" vertex="1">
          <mxGeometry x="115" y="360" width="300" height="178" as="geometry">
            <mxRectangle x="340" y="380" width="170" height="26" as="alternateBounds" />
          </mxGeometry>
        </mxCell>
        <mxCell id="o4iG0BvGkQ8m5M4XFaOD-67" value="in : Scanner = new Scanner(System.in)&#xa;&lt;&lt;Property&gt;&gt; -nombre : String&#xa;&lt;&lt;Property&gt;&gt; -boletas : Boleta = new ArrayList&lt;&gt;()" style="text;align=left;verticalAlign=top;spacingLeft=4;spacingRight=4;overflow=hidden;rotatable=0;points=[[0,0.5],[1,0.5]];portConstraint=eastwest;" parent="o4iG0BvGkQ8m5M4XFaOD-66" vertex="1">
          <mxGeometry y="26" width="300" height="54" as="geometry" />
        </mxCell>
        <mxCell id="o4iG0BvGkQ8m5M4XFaOD-68" value="" style="line;html=1;strokeWidth=1;align=left;verticalAlign=middle;spacingTop=-1;spacingLeft=3;spacingRight=3;rotatable=0;labelPosition=right;points=[];portConstraint=eastwest;" parent="o4iG0BvGkQ8m5M4XFaOD-66" vertex="1">
          <mxGeometry y="80" width="300" height="8" as="geometry" />
        </mxCell>
        <mxCell id="o4iG0BvGkQ8m5M4XFaOD-69" value="&lt;div&gt;+Usuario()&lt;/div&gt;&lt;div&gt;+Usuario(nombre : String)&lt;/div&gt;&lt;div&gt;+agregarBoleta(boleta : Boleta) : void&lt;/div&gt;&lt;div&gt;+mostrarBoletas() : void&lt;/div&gt;&lt;div&gt;+hasBoleta() : boolean&lt;br&gt;&lt;/div&gt;" style="text;html=1;align=left;verticalAlign=middle;resizable=0;points=[];autosize=1;strokeColor=none;fillColor=none;" parent="o4iG0BvGkQ8m5M4XFaOD-66" vertex="1">
          <mxGeometry y="88" width="300" height="90" as="geometry" />
        </mxCell>
        <mxCell id="o4iG0BvGkQ8m5M4XFaOD-73" value="" style="endArrow=open;startArrow=cross;endFill=0;startFill=0;endSize=8;startSize=10;html=1;rounded=0;exitX=0.87;exitY=1.067;exitDx=0;exitDy=0;exitPerimeter=0;entryX=0.87;entryY=0;entryDx=0;entryDy=0;entryPerimeter=0;" parent="WIyWlLk6GJQsqaUBKTNV-1" source="o4iG0BvGkQ8m5M4XFaOD-50" target="o4iG0BvGkQ8m5M4XFaOD-66" edge="1">
          <mxGeometry width="160" relative="1" as="geometry">
            <mxPoint x="425" y="380" as="sourcePoint" />
            <mxPoint x="585" y="380" as="targetPoint" />
          </mxGeometry>
        </mxCell>
        <mxCell id="o4iG0BvGkQ8m5M4XFaOD-74" value="" style="endArrow=open;startArrow=cross;endFill=0;startFill=0;endSize=8;startSize=10;html=1;rounded=0;exitX=-0.012;exitY=0.41;exitDx=0;exitDy=0;exitPerimeter=0;entryX=1.017;entryY=0.017;entryDx=0;entryDy=0;entryPerimeter=0;" parent="WIyWlLk6GJQsqaUBKTNV-1" source="o4iG0BvGkQ8m5M4XFaOD-59" target="o4iG0BvGkQ8m5M4XFaOD-50" edge="1">
          <mxGeometry width="160" relative="1" as="geometry">
            <mxPoint x="425" y="380" as="sourcePoint" />
            <mxPoint x="585" y="380" as="targetPoint" />
          </mxGeometry>
        </mxCell>
        <mxCell id="o4iG0BvGkQ8m5M4XFaOD-75" value="" style="endArrow=none;html=1;edgeStyle=orthogonalEdgeStyle;rounded=0;exitX=1.017;exitY=0.87;exitDx=0;exitDy=0;exitPerimeter=0;entryX=-0.003;entryY=0.87;entryDx=0;entryDy=0;entryPerimeter=0;" parent="WIyWlLk6GJQsqaUBKTNV-1" source="o4iG0BvGkQ8m5M4XFaOD-67" target="o4iG0BvGkQ8m5M4XFaOD-18" edge="1">
          <mxGeometry relative="1" as="geometry">
            <mxPoint x="425" y="380" as="sourcePoint" />
            <mxPoint x="585" y="380" as="targetPoint" />
          </mxGeometry>
        </mxCell>
        <mxCell id="o4iG0BvGkQ8m5M4XFaOD-76" value="parent" style="edgeLabel;resizable=0;html=1;align=left;verticalAlign=bottom;" parent="o4iG0BvGkQ8m5M4XFaOD-75" connectable="0" vertex="1">
          <mxGeometry x="-1" relative="1" as="geometry" />
        </mxCell>
        <mxCell id="o4iG0BvGkQ8m5M4XFaOD-77" value="child" style="edgeLabel;resizable=0;html=1;align=right;verticalAlign=bottom;" parent="o4iG0BvGkQ8m5M4XFaOD-75" connectable="0" vertex="1">
          <mxGeometry x="1" relative="1" as="geometry" />
        </mxCell>
        <mxCell id="o4iG0BvGkQ8m5M4XFaOD-78" value="" style="endArrow=open;startArrow=cross;endFill=0;startFill=0;endSize=8;startSize=10;html=1;rounded=0;exitX=0.25;exitY=1;exitDx=0;exitDy=0;entryX=0.25;entryY=0;entryDx=0;entryDy=0;" parent="WIyWlLk6GJQsqaUBKTNV-1" source="o4iG0BvGkQ8m5M4XFaOD-17" target="o4iG0BvGkQ8m5M4XFaOD-62" edge="1">
          <mxGeometry width="160" relative="1" as="geometry">
            <mxPoint x="545" y="560" as="sourcePoint" />
            <mxPoint x="875" y="570" as="targetPoint" />
          </mxGeometry>
        </mxCell>
        <mxCell id="o4iG0BvGkQ8m5M4XFaOD-79" value="" style="endArrow=block;dashed=1;endFill=0;endSize=12;html=1;rounded=0;exitX=0.25;exitY=1;exitDx=0;exitDy=0;entryX=0.492;entryY=0;entryDx=0;entryDy=0;entryPerimeter=0;" parent="WIyWlLk6GJQsqaUBKTNV-1" source="o4iG0BvGkQ8m5M4XFaOD-51" target="o4iG0BvGkQ8m5M4XFaOD-3" edge="1">
          <mxGeometry width="160" relative="1" as="geometry">
            <mxPoint x="615" y="670" as="sourcePoint" />
            <mxPoint x="775" y="670" as="targetPoint" />
          </mxGeometry>
        </mxCell>
        <mxCell id="o4iG0BvGkQ8m5M4XFaOD-80" value="" style="endArrow=open;startArrow=cross;endFill=0;startFill=0;endSize=8;startSize=10;html=1;rounded=0;entryX=1.004;entryY=0.147;entryDx=0;entryDy=0;entryPerimeter=0;" parent="WIyWlLk6GJQsqaUBKTNV-1" target="o4iG0BvGkQ8m5M4XFaOD-3" edge="1">
          <mxGeometry width="160" relative="1" as="geometry">
            <mxPoint x="785" y="702" as="sourcePoint" />
            <mxPoint x="815" y="710" as="targetPoint" />
          </mxGeometry>
        </mxCell>
        <mxCell id="o4iG0BvGkQ8m5M4XFaOD-81" value="" style="endArrow=open;startArrow=cross;endFill=0;startFill=0;endSize=8;startSize=10;html=1;rounded=0;exitX=0;exitY=-0.133;exitDx=0;exitDy=0;exitPerimeter=0;entryX=1;entryY=0.25;entryDx=0;entryDy=0;" parent="WIyWlLk6GJQsqaUBKTNV-1" source="o4iG0BvGkQ8m5M4XFaOD-54" target="o4iG0BvGkQ8m5M4XFaOD-6" edge="1">
          <mxGeometry width="160" relative="1" as="geometry">
            <mxPoint x="455" y="690" as="sourcePoint" />
            <mxPoint x="615" y="690" as="targetPoint" />
          </mxGeometry>
        </mxCell>
        <mxCell id="o4iG0BvGkQ8m5M4XFaOD-82" value="" style="endArrow=open;startArrow=cross;endFill=0;startFill=0;endSize=8;startSize=10;html=1;rounded=0;exitX=-0.009;exitY=0.6;exitDx=0;exitDy=0;exitPerimeter=0;entryX=1;entryY=0.5;entryDx=0;entryDy=0;" parent="WIyWlLk6GJQsqaUBKTNV-1" source="o4iG0BvGkQ8m5M4XFaOD-54" target="o4iG0BvGkQ8m5M4XFaOD-10" edge="1">
          <mxGeometry width="160" relative="1" as="geometry">
            <mxPoint x="455" y="690" as="sourcePoint" />
            <mxPoint x="615" y="690" as="targetPoint" />
            <Array as="points">
              <mxPoint x="375" y="606" />
              <mxPoint x="375" y="780" />
            </Array>
          </mxGeometry>
        </mxCell>
      </root>
    </mxGraphModel>
  </diagram>
</mxfile>
